# 3ds Max Wavefront OBJ Exporter v0.97b - (c)2007 guruware
# File Created: 29.03.2015 15:22:32

mtllib flowers1.mtl

#
# object Box001
#

v  16.0000 13.3388 21.7482
v  16.0000 13.3388 16.0000
v  10.4564 13.3388 16.0000
v  10.4564 13.3388 21.7482
v  21.5436 0.0000 21.7482
v  21.5436 11.7094 21.7482
v  10.4564 11.7094 21.7482
v  10.4564 0.0000 21.7482
v  21.5436 0.0000 10.2518
v  21.5436 11.7094 10.2518
v  10.4564 0.0000 10.2518
v  10.4564 11.7094 10.2518
v  21.5436 13.3388 22.5099
v  10.4564 13.3388 22.5099
v  10.4564 11.7094 22.5099
v  21.5436 11.7094 22.5099
v  22.3053 13.3388 10.2518
v  22.3053 13.3388 21.7482
v  22.3053 11.7094 21.7482
v  22.3053 11.7094 10.2518
v  10.4564 13.3388 9.4901
v  21.5436 13.3388 9.4901
v  21.5436 11.7094 9.4901
v  10.4564 11.7094 9.4901
v  9.6947 13.3388 21.7482
v  9.6947 13.3388 10.2518
v  9.6947 11.7094 10.2518
v  9.6947 11.7094 21.7482
v  10.4564 13.7871 21.7482
v  10.4564 13.7871 10.2518
v  9.6947 13.7871 10.2518
v  9.6947 13.7871 21.7482
v  9.6947 11.7094 9.4901
v  9.6947 13.3388 9.4901
v  9.6947 13.3388 22.5099
v  9.6947 11.7094 22.5099
v  21.5436 13.7871 21.7482
v  10.4564 13.7871 22.5099
v  21.5436 13.7871 22.5099
v  22.3053 13.3388 22.5099
v  22.3053 11.7094 22.5099
v  21.5436 13.7871 10.2518
v  22.3053 13.7871 21.7482
v  22.3053 13.7871 10.2518
v  21.5436 13.3388 21.7482
v  21.5436 13.3388 10.2518
v  21.5436 13.7871 9.4901
v  10.4564 13.7871 9.4901
v  22.3053 11.7094 9.4901
v  22.3053 13.3388 9.4901
v  10.4564 13.3388 10.2518
v  22.3053 13.7871 9.4901
v  9.6947 13.7871 9.4901
v  9.6947 13.7871 22.5099
v  22.3053 13.7871 22.5099
v  10.4564 13.3388 15.9283
v  21.5436 13.3388 15.9283
v  21.5436 13.3388 16.0000
v  16.0000 13.3388 10.2518
v  16.0000 13.3388 25.3773
v  6.4286 13.3388 16.0000
v  16.0000 13.3388 6.9818
v  25.6030 13.3388 16.0000
v  16.0000 45.0309 16.0000
v  16.0000 45.0309 25.3773
v  6.4286 45.0309 16.0000
v  25.6030 45.0309 16.0000
v  16.0000 45.0309 6.9818
# 68 vertices

vn 0.0000 1.0000 -0.0000
vn 0.0000 0.0000 1.0000
vn 1.0000 0.0000 -0.0000
vn 0.0000 0.0000 -1.0000
vn -1.0000 0.0000 -0.0000
vn 0.0000 -1.0000 -0.0000
vn 0.0000 0.0000 -0.0000
vn 0.8944 0.4473 -0.0000
vn 0.0002 1.0000 -0.0000
vn 0.0000 1.0000 -0.0002
vn 0.0000 0.5761 -0.8173
vn 0.0000 0.1918 -0.9814
vn -0.0000 0.4571 -0.8894
vn 0.0000 1.0000 -0.0003
vn 0.0000 -0.0138 0.9999
vn -0.0000 -0.0000 1.0000
vn -0.0000 0.0000 1.0000
vn 0.0000 -0.0000 1.0000
vn -0.0000 0.0000 -1.0000
vn -0.0000 -0.0000 -1.0000
vn 0.0000 -0.0000 -1.0000
# 21 vertex normals

vt 0.0631 0.2520 0.0000
vt 0.0631 0.3123 0.0000
vt 0.0027 0.3123 0.0000
vt 0.0027 0.2520 0.0000
vt 0.4840 0.0317 0.0000
vt 0.4840 0.3124 0.0000
vt 0.1412 0.3124 0.0000
vt 0.1412 0.0317 0.0000
vt 0.1408 0.0313 0.0000
vt 0.1408 0.3123 0.0000
vt 0.4840 0.3123 0.0000
vt 0.4840 0.0313 0.0000
vt 0.1408 0.0314 0.0000
vt 0.1408 0.3117 0.0000
vt 0.4840 0.3117 0.0000
vt 0.4840 0.0314 0.0000
vt 0.4844 0.0314 0.0000
vt 0.4844 0.3124 0.0000
vt 0.1408 0.3124 0.0000
vt 0.4771 0.3615 0.0000
vt 0.1485 0.3615 0.0000
vt 0.1485 0.3127 0.0000
vt 0.4771 0.3127 0.0000
vt 0.1472 0.3612 0.0000
vt 0.4780 0.3612 0.0000
vt 0.4780 0.3126 0.0000
vt 0.1472 0.3126 0.0000
vt 0.1480 0.3612 0.0000
vt 0.4772 0.3612 0.0000
vt 0.4772 0.3122 0.0000
vt 0.1480 0.3122 0.0000
vt 0.4777 0.3615 0.0000
vt 0.1471 0.3615 0.0000
vt 0.1471 0.3131 0.0000
vt 0.4777 0.3131 0.0000
vt 0.9998 0.9551 0.0000
vt 0.9998 0.9822 0.0000
vt 0.6253 0.9822 0.0000
vt 0.6253 0.9551 0.0000
vt 0.1254 0.3122 0.0000
vt 0.1254 0.3612 0.0000
vt 0.0000 0.8778 0.0000
vt 1.0000 0.8778 0.0000
vt 0.1259 0.3615 0.0000
vt 0.1259 0.3127 0.0000
vt 0.9774 0.9842 0.0000
vt 0.6482 0.9842 0.0000
vt 0.6482 0.9535 0.0000
vt 0.9774 0.9535 0.0000
vt 0.0000 1.0000 0.0000
vt 0.4999 0.3612 0.0000
vt 0.4999 0.3126 0.0000
vt 0.6258 0.9825 0.0000
vt 0.6258 0.9554 0.0000
vt 1.0000 0.9554 0.0000
vt 1.0000 0.9825 0.0000
vt 1.0000 1.0000 0.0000
vt 0.6477 0.9541 0.0000
vt 0.9774 0.9541 0.0000
vt 0.9774 0.9845 0.0000
vt 0.6477 0.9845 0.0000
vt 0.1253 0.3126 0.0000
vt 0.1253 0.3612 0.0000
vt 0.4998 0.3612 0.0000
vt 0.4998 0.3122 0.0000
vt 0.6258 0.9843 0.0000
vt 1.0000 0.9843 0.0000
vt 0.1252 0.3615 0.0000
vt 0.1252 0.3131 0.0000
vt 0.6251 0.9541 0.0000
vt 0.6251 0.9845 0.0000
vt 0.6256 0.9842 0.0000
vt 0.6256 0.9535 0.0000
vt 0.4997 0.3131 0.0000
vt 0.4997 0.3615 0.0000
vt 0.6258 0.9536 0.0000
vt 1.0000 0.9536 0.0000
vt 0.4997 0.3127 0.0000
vt 0.8126 0.9532 0.0000
vt 0.8103 0.9532 0.0000
vt 0.6252 0.9532 0.0000
vt 0.6252 0.9686 0.0000
vt 1.0000 0.9532 0.0000
vt 1.0000 0.9686 0.0000
vt 0.1254 0.3746 0.0000
vt 0.1480 0.3746 0.0000
vt 0.1471 0.3748 0.0000
vt 0.1252 0.3748 0.0000
vt 0.4777 0.3748 0.0000
vt 0.4997 0.3748 0.0000
vt 0.1485 0.3749 0.0000
vt 0.1259 0.3749 0.0000
vt 0.0000 0.0000 0.0000
vt 0.8125 0.9532 0.0000
vt 0.6251 0.9532 0.0000
vt 0.6251 0.9686 0.0000
vt 0.4771 0.3749 0.0000
vt 0.4997 0.3749 0.0000
vt 0.4780 0.3746 0.0000
vt 0.4999 0.3746 0.0000
vt 1.0000 0.0000 0.0000
vt 0.8103 0.9536 0.0000
vt 0.8126 0.9536 0.0000
vt 1.0000 0.9685 0.0000
vt 0.6252 0.9536 0.0000
vt 0.6252 0.9685 0.0000
vt 0.1472 0.3746 0.0000
vt 0.6251 0.9685 0.0000
vt 0.1253 0.3746 0.0000
vt 0.4772 0.3746 0.0000
vt 0.4998 0.3746 0.0000
vt 0.1236 0.2520 0.0000
vt 0.1236 0.3123 0.0000
vt 0.0631 0.2140 0.0000
vt 0.0631 0.3726 0.0000
vt 0.0027 0.3726 0.0000
vt 0.0027 0.3130 0.0000
vt -0.0413 0.3123 0.0000
vt 0.1236 0.3130 0.0000
vt 0.1236 0.3726 0.0000
vt 0.0631 0.4068 0.0000
vt 0.1678 0.3123 0.0000
vt 0.2500 1.0000 0.0000
vt 0.2500 0.3750 0.0000
vt 0.0938 0.3750 0.0000
vt 0.0030 0.9999 0.0000
vt 0.1075 0.3753 0.0000
vt 0.2513 0.3753 0.0000
vt 0.2513 0.9999 0.0000
vt 0.0000 0.5000 0.0000
vt 0.5000 0.0000 0.0000
vt 1.0000 0.5000 0.0000
vt 0.5000 1.0000 0.0000
vt 0.5000 0.5000 0.0000
vt 0.5000 0.0918 0.0000
vt 0.0030 0.3753 0.0000
vt 0.0000 0.3750 0.0000
vt 0.2517 0.3756 0.0000
vt 0.2517 1.0000 0.0000
vt 0.4996 1.0000 0.0000
vt 0.4996 0.3756 0.0000
vt 0.9249 0.5000 0.0000
vt 0.5000 0.9316 0.0000
vt -0.0000 1.0000 0.0000
vt 0.2515 1.0000 0.0000
vt 0.2515 0.3754 0.0000
vt -0.0000 0.3754 0.0000
# 147 texture coords

g Box001
usemtl 07___Default
s 4
f 1/1/1 2/2/1 3/3/1 
f 3/3/1 4/4/1 1/1/1 
s 8
f 5/5/2 6/6/2 7/7/2 
f 7/7/2 8/8/2 5/5/2 
s 16
f 9/9/3 10/10/3 6/11/3 
f 6/11/3 5/12/3 9/9/3 
s 32
f 11/13/4 12/14/4 10/15/4 
f 10/15/4 9/16/4 11/13/4 
s 64
f 8/17/5 7/18/5 12/19/5 
f 12/19/5 11/13/5 8/17/5 
s 8
f 13/20/2 14/21/2 15/22/2 
f 15/22/2 16/23/2 13/20/2 
s 16
f 17/24/3 18/25/3 19/26/3 
f 19/26/3 20/27/3 17/24/3 
s 32
f 21/28/4 22/29/4 23/30/4 
f 23/30/4 24/31/4 21/28/4 
s 64
f 25/32/5 26/33/5 27/34/5 
f 27/34/5 28/35/5 25/32/5 
s off
f 29/36/1 30/37/1 31/38/1 
f 31/38/1 32/39/1 29/36/1 
f 21/28/4 24/31/4 33/40/4 
f 33/40/4 34/41/4 21/28/4 
f 12/42/6 7/43/6 28/43/6 
f 28/43/6 27/42/6 12/42/6 
f 15/22/2 14/21/2 35/44/2 
f 35/44/2 36/45/2 15/22/2 
f 37/46/1 29/47/1 38/48/1 
f 38/48/1 39/49/1 37/46/1 
f 4/50/5 7/42/5 15/42/5 
f 15/42/5 14/50/5 4/50/5 
f 7/42/6 6/43/6 16/43/6 
f 16/43/6 15/42/6 7/42/6 
f 19/26/3 18/25/3 40/51/3 
f 40/51/3 41/52/3 19/26/3 
f 42/53/1 37/54/1 43/55/1 
f 43/55/1 44/56/1 42/53/1 
f 45/50/2 6/42/2 19/42/2 
f 19/42/2 18/50/2 45/50/2 
f 6/42/6 10/43/6 20/43/6 
f 20/43/6 19/42/6 6/42/6 
f 10/42/4 46/50/4 17/57/4 
f 17/57/4 20/43/4 10/42/4 
f 30/58/1 42/59/1 47/60/1 
f 47/60/1 48/61/1 30/58/1 
f 17/24/3 20/27/3 49/62/3 
f 49/62/3 50/63/3 17/24/3 
f 10/42/6 12/43/6 24/43/6 
f 24/43/6 23/42/6 10/42/6 
f 12/43/5 51/57/5 21/57/5 
f 21/57/5 24/43/5 12/43/5 
f 46/50/2 10/42/2 20/42/2 
f 20/42/2 17/50/2 46/50/2 
f 10/42/6 23/42/6 49/42/6 
f 49/42/6 20/42/6 10/42/6 
f 23/30/4 22/29/4 50/64/4 
f 50/64/4 49/65/4 23/30/4 
f 47/66/1 42/53/1 44/56/1 
f 44/56/1 52/67/1 47/66/1 
f 51/57/3 12/43/3 24/43/3 
f 24/43/3 21/57/3 51/57/3 
f 12/42/6 27/42/6 33/42/6 
f 33/42/6 24/43/6 12/42/6 
f 27/34/5 26/33/5 34/68/5 
f 34/68/5 33/69/5 27/34/5 
f 31/70/1 30/58/1 48/61/1 
f 48/61/1 53/71/1 31/70/1 
f 7/42/3 4/50/3 14/50/3 
f 14/50/3 15/42/3 7/42/3 
f 29/47/1 32/72/1 54/73/1 
f 54/73/1 38/48/1 29/47/1 
f 25/32/5 28/35/5 36/74/5 
f 36/74/5 35/75/5 25/32/5 
f 28/43/6 7/43/6 15/42/6 
f 15/42/6 36/43/6 28/43/6 
f 6/42/4 45/50/4 18/50/4 
f 18/50/4 19/42/4 6/42/4 
f 37/54/1 39/76/1 55/77/1 
f 55/77/1 43/55/1 37/54/1 
f 13/20/2 16/23/2 41/78/2 
f 41/78/2 40/75/2 13/20/2 
f 16/43/6 6/43/6 19/42/6 
f 19/42/6 41/43/6 16/43/6 
f 3/79/7 3/79/7 56/80/7 
f 56/80/3 51/81/3 30/82/3 
f 3/79/3 56/80/3 30/82/3 
f 4/83/3 3/79/3 30/82/3 
f 4/83/3 30/82/3 29/84/3 
f 51/57/3 21/57/3 48/57/3 
f 48/57/3 30/50/3 51/57/3 
f 21/28/4 34/41/4 53/85/4 
f 53/85/4 48/86/4 21/28/4 
f 34/68/5 26/33/5 31/87/5 
f 31/87/5 53/88/5 34/68/5 
f 26/33/5 25/32/5 32/89/5 
f 32/89/5 31/87/5 26/33/5 
f 25/32/5 35/75/5 54/90/5 
f 54/90/5 32/89/5 25/32/5 
f 35/44/2 14/21/2 38/91/2 
f 38/91/2 54/92/2 35/44/2 
f 14/50/3 4/50/3 29/93/3 
f 29/93/3 38/50/3 14/50/3 
f 45/83/7 1/94/7 1/94/7 
f 1/94/4 4/95/4 29/96/4 
f 45/83/4 1/94/4 29/96/4 
f 45/83/4 29/96/4 37/84/4 
f 4/50/5 14/50/5 38/50/5 
f 38/50/5 29/93/5 4/50/5 
f 14/21/2 13/20/2 39/97/2 
f 39/97/2 38/91/2 14/21/2 
f 13/20/2 40/75/2 55/98/2 
f 55/98/2 39/97/2 13/20/2 
f 40/51/3 18/25/3 43/99/3 
f 43/99/3 55/100/3 40/51/3 
f 18/50/4 45/50/4 37/101/4 
f 37/101/4 43/50/4 18/50/4 
f 57/102/7 58/103/7 58/103/7 
f 58/103/5 45/77/5 37/104/5 
f 57/102/5 58/103/5 37/104/5 
f 46/105/5 57/102/5 37/104/5 
f 46/105/5 37/104/5 42/106/5 
f 45/50/2 18/50/2 43/50/2 
f 43/50/2 37/101/2 45/50/2 
f 18/25/3 17/24/3 44/107/3 
f 44/107/3 43/99/3 18/25/3 
f 17/57/4 46/50/4 42/57/4 
f 42/57/4 44/57/4 17/57/4 
f 51/95/7 59/94/7 59/94/7 
f 59/94/2 46/83/2 42/104/2 
f 51/95/2 59/94/2 42/104/2 
f 51/95/2 42/104/2 30/108/2 
f 46/50/2 17/50/2 44/50/2 
f 44/50/2 42/57/2 46/50/2 
f 17/24/3 50/63/3 52/109/3 
f 52/109/3 44/107/3 17/24/3 
f 50/64/4 22/29/4 47/110/4 
f 47/110/4 52/111/4 50/64/4 
f 22/29/4 21/28/4 48/86/4 
f 48/86/4 47/110/4 22/29/4 
f 21/57/5 51/57/5 30/50/5 
f 30/50/5 48/57/5 21/57/5 
s 4
f 1/1/8 45/112/1 58/113/1 
f 1/1/8 58/113/1 2/2/9 
f 1/1/8 2/2/9 60/114/3 
f 2/2/10 59/115/1 51/116/1 
f 2/2/10 51/116/1 56/117/1 
f 2/2/10 56/117/1 3/3/11 
f 2/2/10 3/3/11 61/118/12 
f 57/119/1 46/120/1 59/115/8 
f 58/113/13 57/119/1 59/115/8 
f 59/115/8 62/121/3 2/2/14 
f 58/113/13 59/115/8 2/2/14 
f 58/113/13 2/2/14 63/122/15 
s off
f 64/123/5 2/124/5 1/125/5 
f 1/125/5 65/50/5 64/123/5 
f 66/126/16 3/127/16 2/128/16 
f 2/128/17 64/129/17 66/126/17 
f 3/130/7 66/130/7 3/130/7 
f 1/131/7 65/131/7 1/131/7 
f 58/132/7 67/132/7 58/132/7 
f 59/133/7 68/133/7 59/133/7 
f 2/134/18 58/132/18 67/132/18 
f 67/132/2 64/134/2 2/134/2 
f 2/134/3 64/134/3 65/131/3 
f 65/131/3 60/135/3 2/134/3 
f 2/124/5 64/123/5 68/50/5 
f 68/50/5 59/125/5 2/124/5 
f 3/127/2 66/126/2 61/136/2 
f 59/125/5 68/50/5 62/137/5 
f 2/138/19 64/139/19 67/140/19 
f 67/140/20 63/141/20 2/138/20 
f 67/132/17 58/132/17 63/142/17 
f 68/133/3 64/134/3 2/134/3 
f 2/134/3 62/143/3 68/133/3 
f 66/144/4 64/145/4 2/146/4 
f 2/146/21 61/147/21 66/144/21 
f 65/50/5 1/125/5 60/137/5 
# 176 faces

