# 3ds Max Wavefront OBJ Exporter v0.97b - (c)2007 guruware
# File Created: 29.03.2015 16:29:25

mtllib cupboard1.mtl

#
# object Box001
#

v  1.1030 0.0000 31.8467
v  1.1030 0.0000 0.1533
v  62.8970 0.0000 0.1533
v  62.8970 0.0000 31.8467
v  1.1030 65.0197 31.8467
v  62.8970 65.0197 31.8467
v  62.8970 65.0197 0.1533
v  1.1030 65.0197 0.1533
v  62.8970 8.4059 31.8467
v  1.1030 8.4059 31.8467
v  62.8970 8.4059 0.1533
v  1.1030 8.4059 0.1533
# 12 vertices

vn 0.0000 -1.0000 -0.0000
vn 0.0000 1.0000 -0.0000
vn 0.0000 0.0000 1.0000
vn 1.0000 0.0000 -0.0000
vn 0.0000 0.0000 -1.0000
vn -1.0000 0.0000 -0.0000
# 6 vertex normals

vt 1.0000 0.0000 0.0000
vt 1.0000 1.0000 0.0000
vt 0.0000 1.0000 0.0000
vt 0.0000 0.0000 0.0000
vt 0.0000 0.8438 0.0000
vt 0.6042 0.8438 0.0000
vt 0.6042 1.0000 0.0000
vt 0.6042 0.8047 0.0000
vt -0.0000 0.8438 0.0000
vt -0.0000 0.8047 0.0000
vt 0.8438 0.5000 0.0000
vt 0.8438 0.5391 0.0000
vt 0.6354 0.5391 0.0000
vt 0.6354 0.5000 0.0000
vt 0.0000 0.8047 0.0000
vt 0.0000 0.5000 0.0000
vt 0.6042 0.5000 0.0000
vt 0.6354 1.0000 0.0000
vt 0.8438 1.0000 0.0000
vt 0.8438 0.5469 0.0000
vt 0.6354 0.5469 0.0000
vt 0.6042 0.4922 0.0000
vt 0.0000 0.4922 0.0000
vt 0.0000 0.1875 0.0000
vt 0.6042 0.1875 0.0000
# 25 texture coords

g Box001
usemtl 07___Default
s 2
f 1/1/1 2/2/1 3/3/1 
f 3/3/1 4/4/1 1/1/1 
s 4
f 5/5/2 6/6/2 7/7/2 
f 7/7/2 8/3/2 5/5/2 
s 8
f 4/8/3 9/6/3 10/9/3 
f 10/9/3 1/10/3 4/8/3 
s 16
f 3/11/4 11/12/4 9/13/4 
f 9/13/4 4/14/4 3/11/4 
s 32
f 2/15/5 12/5/5 11/6/5 
f 11/6/5 3/8/5 2/15/5 
s 64
f 1/11/6 10/12/6 12/13/6 
f 12/13/6 2/14/6 1/11/6 
s 8
f 6/8/3 5/15/3 10/16/3 
f 10/16/3 9/17/3 6/8/3 
s 16
f 7/18/4 6/19/4 9/20/4 
f 9/20/4 11/21/4 7/18/4 
s 32
f 8/22/5 7/23/5 11/24/5 
f 11/24/5 12/25/5 8/22/5 
s 64
f 5/19/6 8/18/6 12/21/6 
f 12/21/6 10/20/6 5/19/6 
# 20 faces

