# 3ds Max Wavefront OBJ Exporter v0.97b - (c)2007 guruware
# File Created: 05.04.2015 18:11:00

mtllib tv1.mtl

#
# object Box001
#

v  62.8970 15.2641 31.8467
v  62.8970 15.2641 16.0000
v  1.1030 15.2641 16.0000
v  1.1030 15.2641 31.8467
v  62.8970 2.0000 31.8467
v  62.8970 5.3480 31.8467
v  1.1030 5.3480 31.8467
v  1.1030 2.0000 31.8467
v  62.8970 2.0000 0.1533
v  62.8970 5.3480 0.1533
v  1.1030 2.0000 0.1533
v  1.1030 5.3480 0.1533
v  62.8970 15.2641 0.1533
v  62.8970 15.2641 14.0000
v  1.1030 15.2641 0.1533
v  1.1030 15.2641 14.0000
v  62.8970 53.1517 14.0000
v  1.1030 53.1517 14.0000
v  1.1030 53.1517 16.0000
v  62.8970 53.1517 16.0000
v  1.1030 19.1846 16.0000
v  29.0000 19.1846 16.0000
v  35.0000 19.1846 16.0000
v  62.8970 19.1846 16.0000
v  62.8970 19.1846 14.0000
v  35.0000 19.1846 14.0000
v  29.0000 19.1846 14.0000
v  1.1030 19.1846 14.0000
v  35.0000 15.2641 16.0000
v  29.0000 15.2641 16.0000
v  29.0000 15.2641 14.0000
v  35.0000 15.2641 14.0000
# 32 vertices

vn 0.0000 1.0000 -0.0000
vn 0.0000 0.0000 1.0000
vn 1.0000 0.0000 -0.0000
vn 0.0000 0.0000 -1.0000
vn -1.0000 0.0000 -0.0000
vn 0.0000 -0.0000 1.0000
vn 0.0000 -0.0000 -1.0000
vn 1.0000 0.0000 0.0000
vn 1.0000 -0.0000 -0.0000
vn -1.0000 -0.0000 0.0000
vn 0.0000 -1.0000 -0.0000
# 11 vertex normals

vt 0.4531 0.7917 0.0000
vt 0.4531 0.9063 0.0000
vt -0.0000 0.9063 0.0000
vt -0.0000 0.7917 0.0000
vt 0.4531 0.7500 0.0000
vt 0.0000 0.7917 0.0000
vt 0.0000 0.7500 0.0000
vt 0.4688 0.8229 0.0000
vt 0.4688 0.8646 0.0000
vt 0.6250 0.8646 0.0000
vt 0.6250 0.8229 0.0000
vt -0.0000 0.7500 0.0000
vt 0.0000 0.6250 0.0000
vt 0.4531 0.6250 0.0000
vt 0.4688 0.8750 0.0000
vt 0.4688 1.0000 0.0000
vt 0.5391 1.0000 0.0000
vt 0.5469 1.0000 0.0000
vt 0.6250 1.0000 0.0000
vt 0.6250 0.8750 0.0000
vt 0.4688 0.8125 0.0000
vt 0.9219 0.8125 0.0000
vt 0.9219 0.6875 0.0000
vt 0.4688 0.6875 0.0000
vt 0.5547 1.0000 0.0000
vt 0.9219 0.6771 0.0000
vt 0.4688 0.6771 0.0000
vt 0.4688 0.6354 0.0000
vt 0.9219 0.6354 0.0000
vt 0.4531 1.0000 0.0000
vt -0.0000 1.0000 0.0000
vt -0.0000 0.9167 0.0000
vt 0.4531 0.9167 0.0000
vt 0.0000 0.3542 0.0000
vt 0.1953 0.3542 0.0000
vt 0.2500 0.3542 0.0000
vt 0.4531 0.3542 0.0000
vt 0.5078 0.6250 0.0000
vt 0.5391 0.6250 0.0000
vt 0.5391 0.3542 0.0000
vt 0.5078 0.3542 0.0000
vt 0.0000 0.3125 0.0000
vt 0.4531 0.3125 0.0000
vt 0.4531 0.0417 0.0000
vt 0.2500 0.0417 0.0000
vt 0.2031 0.0417 0.0000
vt 0.0000 0.0417 0.0000
vt 0.5000 0.6250 0.0000
vt 0.4688 0.6250 0.0000
vt 0.4688 0.3542 0.0000
vt 0.5000 0.3542 0.0000
vt 0.2578 0.3125 0.0000
vt 0.2578 0.3542 0.0000
vt 0.1953 0.3125 0.0000
vt 0.1953 0.0000 0.0000
vt 0.1953 0.0417 0.0000
vt 0.2578 0.0417 0.0000
vt 0.2578 0.0000 0.0000
vt 0.5000 0.2708 0.0000
vt 0.4688 0.2708 0.0000
vt 0.4688 0.3125 0.0000
vt 0.5000 0.3125 0.0000
# 62 texture coords

g Box001
usemtl 07___Default
s 4
f 1/1/1 2/2/1 3/3/1 
f 3/3/1 4/4/1 1/1/1 
s 8
f 5/5/2 6/1/2 7/6/2 
f 7/6/2 8/7/2 5/5/2 
s 16
f 9/8/3 10/9/3 6/10/3 
f 6/10/3 5/11/3 9/8/3 
s 32
f 11/12/4 12/4/4 10/1/4 
f 10/1/4 9/5/4 11/12/4 
s 64
f 8/11/5 7/10/5 12/9/5 
f 12/9/5 11/8/5 8/11/5 
s 8
f 1/5/2 4/7/2 7/13/2 
f 7/13/2 6/14/2 1/5/2 
s 16
f 10/15/3 13/16/3 14/17/3 
f 10/15/3 14/17/3 2/18/3 
f 2/18/3 2/18/3 1/19/3 
f 10/15/3 2/18/3 1/19/3 
f 10/15/3 1/19/3 6/20/3 
s 32
f 15/21/4 13/22/4 10/23/4 
f 10/23/4 12/24/4 15/21/4 
s 64
f 7/20/5 4/19/5 3/25/5 
f 3/25/5 3/25/3 16/18/3 
f 3/25/5 16/18/3 15/16/5 
f 7/20/5 3/25/5 15/16/5 
f 7/20/5 15/16/5 12/15/5 
s 4
f 17/26/1 18/27/1 19/28/1 
f 19/28/1 20/29/1 17/26/1 
f 13/30/1 15/31/1 16/32/1 
f 16/32/1 14/33/1 13/30/1 
s off
f 2/2/1 14/33/1 16/32/1 
f 16/32/1 3/3/1 2/2/1 
f 20/14/2 19/13/2 21/34/2 
f 20/14/2 21/34/2 22/35/2 
f 20/14/6 22/35/6 23/36/6 
f 24/37/2 20/14/2 23/36/2 
f 17/38/3 20/39/3 24/40/3 
f 24/40/3 25/41/3 17/38/3 
f 18/42/4 17/43/4 25/44/4 
f 18/42/7 25/44/7 26/45/7 
f 18/42/4 26/45/4 27/46/4 
f 28/47/4 18/42/4 27/46/4 
f 19/48/5 18/49/5 28/50/5 
f 28/50/5 21/51/5 19/48/5 
f 29/52/2 23/53/2 22/35/2 
f 22/35/2 30/54/2 29/52/2 
f 31/55/4 27/56/4 26/57/4 
f 26/57/4 32/58/4 31/55/4 
s 1
f 29/59/8 32/60/8 26/61/9 
f 26/61/9 23/62/9 29/59/8 
f 31/60/10 30/59/10 22/62/5 
f 22/62/5 27/61/5 31/60/10 
s off
f 21/28/11 28/27/11 27/26/11 
f 27/26/11 22/29/11 21/28/11 
f 23/28/11 26/27/11 25/26/11 
f 25/26/11 24/29/11 23/28/11 
# 54 faces

